<svg width="255" height="255" viewBox="0 0 255 255" fill="none" xmlns="http://www.w3.org/2000/svg">
<rect width="255" height="255" rx="127.5" fill="url(#paint0_linear)"/>
<path d="M162.451 97.8213C162.451 109.528 156.782 119.838 145.444 128.75C141.595 131.809 138.879 134.498 137.297 136.818C135.715 139.139 134.924 142.013 134.924 145.44V148.209H108.346V141.248C108.346 131.598 111.536 124.03 117.917 118.546C122.083 115.013 124.746 112.587 125.906 111.269C127.119 109.95 127.963 108.685 128.438 107.472C128.965 106.259 129.229 104.835 129.229 103.2C129.229 101.196 128.332 99.5088 126.539 98.1377C124.799 96.7666 122.531 96.0811 119.736 96.0811C111.246 96.0811 102.334 99.4824 93 106.285V75.1982C96.4277 73.2471 101.042 71.5596 106.843 70.1357C112.696 68.7119 117.943 68 122.584 68C135.504 68 145.365 70.5576 152.168 75.6729C159.023 80.7354 162.451 88.1182 162.451 97.8213ZM141.41 170.753C141.41 175.446 139.696 179.296 136.269 182.302C132.894 185.308 128.332 186.811 122.584 186.811C117.047 186.811 112.538 185.281 109.058 182.223C105.577 179.111 103.837 175.288 103.837 170.753C103.837 166.112 105.524 162.368 108.899 159.521C112.327 156.62 116.889 155.17 122.584 155.17C128.227 155.17 132.762 156.62 136.189 159.521C139.67 162.368 141.41 166.112 141.41 170.753Z" fill="white"/>
<defs>
<linearGradient id="paint0_linear" x1="16" y1="-17" x2="252.5" y2="275" gradientUnits="userSpaceOnUse">
<stop stop-color="#E11D48"/>
<stop offset="1" stop-color="#970D2E"/>
</linearGradient>
</defs>
</svg>
