<svg width="219" height="35" viewBox="0 0 219 35" fill="none" xmlns="http://www.w3.org/2000/svg">
<g clip-path="url(#clip0)">
<path d="M43.7695 29.107C40.5722 29.107 37.8955 28.029 35.7395 25.873C33.5835 23.717 32.5055 21.0257 32.5055 17.799C32.5055 14.631 33.5835 11.9617 35.7395 9.79101C37.8955 7.63501 40.5722 6.55701 43.7695 6.55701C46.9815 6.55701 49.7388 7.56167 52.0415 9.57101L49.0495 12.849C47.5095 11.6463 45.7495 11.045 43.7695 11.045C41.7455 11.0597 40.1102 11.6977 38.8635 12.959C37.6315 14.2057 37.0155 15.8043 37.0155 17.755C37.0155 19.8523 37.6388 21.517 38.8855 22.749C40.1322 23.981 41.7675 24.597 43.7915 24.597C45.4195 24.597 46.6662 24.2817 47.5315 23.651V19.779L44.5395 19.801V15.577H52.0415V26.115C49.7535 28.1097 46.9962 29.107 43.7695 29.107ZM60.1155 14.059V15.731C61.2008 14.631 62.5135 14.081 64.0535 14.081C64.5375 14.081 64.9995 14.1177 65.4395 14.191L64.7795 18.349C64.2955 17.909 63.5988 17.6743 62.6895 17.645C61.6628 17.7183 60.8048 18.459 60.1155 19.867V29.107H55.9135V14.521L60.1155 14.059ZM75.0095 29.261C72.8242 29.261 70.9982 28.5277 69.5315 27.061C68.0795 25.5943 67.3535 23.7757 67.3535 21.605C67.3535 19.4197 68.0795 17.5937 69.5315 16.127C70.9982 14.6603 72.8242 13.927 75.0095 13.927C77.1948 13.927 79.0208 14.6603 80.4875 16.127C81.9542 17.5937 82.6875 19.4197 82.6875 21.605C82.6875 23.7903 81.9542 25.609 80.4875 27.061C79.0208 28.5277 77.1948 29.261 75.0095 29.261ZM75.0095 25.631C76.1388 25.631 77.0628 25.2423 77.7815 24.465C78.5002 23.7023 78.8595 22.749 78.8595 21.605C78.8595 20.461 78.5002 19.5077 77.7815 18.745C77.0628 17.9677 76.1315 17.579 74.9875 17.579C73.8582 17.579 72.9342 17.9677 72.2155 18.745C71.5115 19.5077 71.1595 20.461 71.1595 21.605C71.1595 22.749 71.5115 23.7023 72.2155 24.465C72.9342 25.2423 73.8655 25.631 75.0095 25.631ZM94.6115 23.783V14.059H98.8135V29.107H94.6115V27.743C93.5995 28.6523 92.3968 29.107 91.0035 29.107C89.0968 29.107 87.6448 28.5277 86.6475 27.369C85.6355 26.2103 85.1295 24.883 85.1295 23.387V14.059H89.3535V22.331C89.3535 23.3283 89.6028 24.1057 90.1015 24.663C90.6002 25.2203 91.3555 25.5137 92.3675 25.543C93.2475 25.4843 93.9955 24.8977 94.6115 23.783ZM106.601 35.443L102.399 35.421V14.521L106.601 14.059V15.269C107.731 14.4623 108.838 14.059 109.923 14.059C112.226 14.059 114.052 14.8143 115.401 16.325C116.765 17.821 117.447 19.5737 117.447 21.583C117.447 23.5923 116.765 25.345 115.401 26.841C114.052 28.3517 112.226 29.107 109.923 29.107C108.413 29.0043 107.305 28.5937 106.601 27.875V35.443ZM106.601 20.219V22.661C106.807 24.3477 107.863 25.3377 109.769 25.631C112.175 25.4403 113.531 24.1937 113.839 21.891C113.737 19.075 112.38 17.6157 109.769 17.513C107.863 17.821 106.807 18.723 106.601 20.219ZM127.237 29.261C125.052 29.261 123.233 28.5277 121.781 27.061C120.315 25.5943 119.581 23.7757 119.581 21.605C119.581 19.4197 120.315 17.5937 121.781 16.127C123.233 14.6603 125.052 13.927 127.237 13.927C129.423 13.927 131.249 14.6603 132.715 16.127C134.182 17.5937 134.915 19.4197 134.915 21.605C134.915 23.7903 134.182 25.609 132.715 27.061C131.249 28.5277 129.423 29.261 127.237 29.261ZM127.237 25.631C128.381 25.631 129.305 25.2423 130.009 24.465C130.728 23.7023 131.087 22.749 131.087 21.605C131.087 20.461 130.728 19.5077 130.009 18.745C129.305 17.9677 128.374 17.579 127.215 17.579C126.086 17.579 125.162 17.9677 124.443 18.745C123.739 19.5077 123.387 20.461 123.387 21.605C123.387 22.749 123.739 23.7023 124.443 24.465C125.162 25.2423 126.093 25.631 127.237 25.631ZM141.933 19.493V29.107H137.709V14.521L141.933 14.059V15.401C142.872 14.521 144.075 14.081 145.541 14.081C147.433 14.081 148.885 14.653 149.897 15.797C150.997 14.653 152.647 14.081 154.847 14.081C156.754 14.081 158.213 14.653 159.225 15.797C160.223 16.9557 160.721 18.2903 160.721 19.801V29.107H156.519V20.835C156.519 19.8377 156.292 19.0603 155.837 18.503C155.383 17.9603 154.649 17.6743 153.637 17.645C152.801 17.7037 152.083 18.2537 151.481 19.295C151.423 19.603 151.393 19.9183 151.393 20.241V29.107H147.191V20.835C147.191 19.8377 146.964 19.0603 146.509 18.503C146.055 17.9603 145.321 17.6743 144.309 17.645C143.385 17.7037 142.593 18.3197 141.933 19.493ZM166.375 18.437L164.725 15.885C166.632 14.6823 168.839 14.081 171.347 14.081C173.151 14.081 174.574 14.5797 175.615 15.577C176.671 16.589 177.199 18.0923 177.199 20.087V29.107H172.997V27.919C171.765 28.711 170.658 29.107 169.675 29.107C167.681 29.107 166.177 28.6817 165.165 27.831C164.168 26.9803 163.669 25.807 163.669 24.311C163.669 22.903 164.146 21.649 165.099 20.549C166.038 19.449 167.563 18.899 169.675 18.899C170.658 18.899 171.765 19.1997 172.997 19.801V19.339C172.968 18.239 172.161 17.6377 170.577 17.535C168.773 17.535 167.373 17.8357 166.375 18.437ZM172.997 24.597V22.903C172.601 22.1257 171.648 21.737 170.137 21.737C168.333 21.9423 167.38 22.6463 167.277 23.849C167.38 25.037 168.333 25.6823 170.137 25.785C171.648 25.785 172.601 25.389 172.997 24.597ZM185.185 19.559V29.107H180.961V14.521L185.185 14.059V15.423C186.197 14.5283 187.4 14.081 188.793 14.081C190.7 14.081 192.152 14.653 193.149 15.797C194.147 16.9557 194.645 18.2903 194.645 19.801V29.107H190.443V20.835C190.443 19.8377 190.194 19.0603 189.695 18.503C189.182 17.9603 188.419 17.6743 187.407 17.645C186.542 17.7037 185.801 18.3417 185.185 19.559ZM202.389 29.107H198.187V14.059H202.389V29.107ZM198.033 10.473C198.033 11.0743 198.232 11.573 198.628 11.969C199.038 12.365 199.595 12.563 200.299 12.563C200.989 12.563 201.539 12.365 201.949 11.969C202.345 11.573 202.543 11.0743 202.543 10.473C202.543 9.87167 202.345 9.36567 201.949 8.95501C201.539 8.54434 200.974 8.33901 200.255 8.33901C199.581 8.33901 199.038 8.54434 198.628 8.95501C198.232 9.36567 198.033 9.87167 198.033 10.473ZM207.999 18.437L206.349 15.885C208.256 14.6823 210.463 14.081 212.971 14.081C214.775 14.081 216.205 14.5797 217.261 15.577C218.303 16.589 218.824 18.0923 218.824 20.087V29.107H214.621V27.919C213.404 28.711 212.304 29.107 211.321 29.107C209.312 29.107 207.809 28.6817 206.811 27.831C205.799 26.9803 205.293 25.807 205.293 24.311C205.293 22.903 205.77 21.649 206.724 20.549C207.662 19.449 209.195 18.899 211.321 18.899C212.289 18.899 213.389 19.1997 214.621 19.801V19.339C214.607 18.239 213.808 17.6377 212.224 17.535C210.42 17.535 209.011 17.8357 207.999 18.437ZM214.621 24.597V22.903C214.225 22.1257 213.272 21.737 211.761 21.737C209.957 21.9423 209.004 22.6463 208.901 23.849C209.004 25.037 209.957 25.6823 211.761 25.785C213.272 25.785 214.225 25.389 214.621 24.597Z" fill="#FD2D01"/>
<path d="M13.5 28.786C16.524 28.786 19.359 27.625 21.492 25.492C23.625 23.359 24.786 20.524 24.786 17.5C24.786 14.476 23.625 11.641 21.492 9.50799C19.359 7.37499 16.524 6.21399 13.5 6.21399C10.476 6.21399 7.641 7.37499 5.508 9.50799C3.375 11.641 2.214 14.476 2.214 17.5C2.214 20.524 3.375 23.359 5.508 25.492C7.641 27.625 10.476 28.786 13.5 28.786ZM14.148 26.869C13.932 26.896 13.716 26.896 13.5 26.896C13.203 26.896 12.906 26.869 12.609 26.842C11.637 25.33 10.908 23.71 10.476 22.009H15.255C15.417 22.414 15.714 22.792 16.065 23.035C15.606 24.385 14.958 25.654 14.148 26.869V26.869ZM16.713 26.329C17.226 25.384 17.631 24.439 17.955 23.44C18.738 23.278 19.359 22.738 19.656 22.009H21.735C20.655 23.98 18.846 25.519 16.713 26.329ZM22.869 17.5C22.869 18.391 22.734 19.255 22.518 20.092H19.602C19.44 19.741 19.17 19.417 18.846 19.174C18.9 18.58 18.927 17.986 18.927 17.392C18.927 16.555 18.873 15.718 18.765 14.908H22.491C22.761 15.718 22.869 16.609 22.869 17.5V17.5ZM21.735 12.991H18.441C18.09 11.506 17.577 10.102 16.875 8.75199C18.927 9.53499 20.655 11.074 21.735 12.991ZM17.037 17.392C17.037 17.851 17.01 18.31 16.983 18.769C16.227 18.931 15.606 19.417 15.309 20.092H10.098C9.99 19.282 9.909 18.445 9.909 17.635C9.909 17.122 9.93601 16.609 9.99001 16.096C10.692 15.961 11.259 15.502 11.61 14.908H16.875C16.983 15.718 17.037 16.555 17.037 17.392V17.392ZM12.798 8.15799C13.041 8.13099 13.284 8.13099 13.5 8.13099C13.77 8.13099 14.04 8.13099 14.31 8.15799C15.282 9.66999 16.011 11.29 16.443 12.991H11.745C11.583 12.532 11.286 12.127 10.908 11.83C11.394 10.534 12.015 9.31899 12.798 8.15799ZM10.233 8.69799C9.774 9.56199 9.36901 10.48 9.04501 11.398C8.20801 11.56 7.533 12.181 7.263 12.964H5.29201C6.34501 11.047 8.1 9.50799 10.233 8.69799ZM4.13101 17.5C4.13101 16.609 4.266 15.718 4.509 14.908H7.45201C7.61401 15.205 7.85701 15.475 8.12701 15.691C8.07301 16.339 8.019 16.987 8.019 17.635C8.019 18.472 8.07301 19.282 8.18101 20.092H4.509C4.239 19.255 4.13101 18.391 4.13101 17.5ZM8.50501 21.982C8.85601 23.44 9.36901 24.871 10.071 26.221C8.01901 25.411 6.31801 23.899 5.26501 21.982H8.50501Z" fill="#FD2D01"/>
</g>
<defs>
<clipPath id="clip0">
<rect width="219" height="35" fill="white"/>
</clipPath>
</defs>
</svg>
